<?xml version="1.0" encoding="UTF-8" standalone="no"?>
<!-- Created with Inkscape (http://www.inkscape.org/) -->

<svg
   width="208.63982mm"
   height="228.35539mm"
   viewBox="0 0 208.63982 228.35539"
   version="1.1"
   id="svg1"
   inkscape:export-filename="bitamynd.png"
   inkscape:export-xdpi="96"
   inkscape:export-ydpi="96"
   xmlns:inkscape="http://www.inkscape.org/namespaces/inkscape"
   xmlns:sodipodi="http://sodipodi.sourceforge.net/DTD/sodipodi-0.dtd"
   xmlns="http://www.w3.org/2000/svg"
   xmlns:svg="http://www.w3.org/2000/svg">
  <sodipodi:namedview
     id="namedview1"
     pagecolor="#ffffff"
     bordercolor="#000000"
     borderopacity="0.25"
     inkscape:showpageshadow="2"
     inkscape:pageopacity="0.0"
     inkscape:pagecheckerboard="0"
     inkscape:deskcolor="#d1d1d1"
     inkscape:document-units="mm" />
  <defs
     id="defs1" />
  <g
     inkscape:label="Lag 1"
     inkscape:groupmode="layer"
     id="layer1"
     transform="translate(0.0442065,-43.45098)">
    <path
       style="fill:#000000;fill-opacity:1;stroke:none;stroke-width:0.369648;stroke-opacity:1"
       id="path1-8"
       sodipodi:type="arc"
       sodipodi:cx="104.42142"
       sodipodi:cy="157.62868"
       sodipodi:rx="104.1742"
       sodipodi:ry="114.1777"
       sodipodi:start="0"
       sodipodi:end="6.283111"
       sodipodi:arc-type="slice"
       d="M 208.59562,157.62868 A 104.1742,114.1777 0 0 1 104.42335,271.80637 104.1742,114.1777 0 0 1 0.24721534,157.63292 104.1742,114.1777 0 0 1 104.41561,43.450981 104.1742,114.1777 0 0 1 208.59562,157.62019 l -104.1742,0.008 z" />
    <path
       style="fill:#fff6d5;stroke:none;stroke-width:0.367001;stroke-opacity:1"
       id="path1"
       sodipodi:type="arc"
       sodipodi:cx="104.34669"
       sodipodi:cy="157.6411"
       sodipodi:rx="103.31184"
       sodipodi:ry="113.48781"
       sodipodi:start="0"
       sodipodi:end="6.283111"
       sodipodi:arc-type="slice"
       d="M 207.65852,157.6411 A 103.31184,113.48781 0 0 1 104.34861,271.12891 103.31184,113.48781 0 0 1 1.0348511,157.64531 103.31184,113.48781 0 0 1 104.34093,44.15329 103.31184,113.48781 0 0 1 207.65852,157.63267 l -103.31183,0.008 z" />
  </g>
  <g
     inkscape:groupmode="layer"
     id="layer2"
     inkscape:label="shading"
     transform="translate(0.0442065,-43.45098)">
    <path
       style="fill:#000000;fill-opacity:0.107558;stroke:none;stroke-width:0.367001;stroke-opacity:0.0755814"
       d="m 13.108014,104.86411 1.724738,45.18815 25.871081,61.74565 40.703833,34.49477 c 0,0 28.285714,13.45296 38.289194,11.03833 10.00349,-2.41464 26.90593,-6.55401 42.08363,-14.48781 15.1777,-7.9338 23.45644,-13.79791 23.45644,-13.79791 0,0 -21.04181,23.1115 -37.94425,31.39025 -16.90244,8.27873 -34.14982,11.38327 -37.25435,11.03833 -3.10453,-0.34496 -8.27875,-0.34496 -10.693383,-0.6899 -2.414635,-0.34496 -13.452962,-1.03484 -18.282229,-2.75958 -4.82927,-1.72473 -9.658538,-1.03483 -16.212545,-4.82927 -6.554007,-3.79443 -19.317073,-9.31359 -22.766549,-13.79791 -3.449478,-4.48432 -13.452961,-15.8676 -15.522649,-18.28223 -2.069686,-2.41463 -13.797909,-17.93728 -14.142857,-20.00697 -0.344947,-2.06969 -9.6585361,-28.63066 -9.6585361,-31.0453 0,-2.41463 -1.5541813,-11.04254 -1.7247387,-14.4878 -0.86236934,-17.41986 2.4146341,-39.66898 4.1393728,-43.11846 1.7247386,-3.44948 7.933798,-17.59234 7.933798,-17.59234 z"
       id="path2"
       sodipodi:nodetypes="ccccsscsssssssssssc" />
    <path
       style="fill:#000000;fill-opacity:0.107558;stroke:none;stroke-width:0.367001;stroke-opacity:0.0755814"
       d="m 29.665504,80.027874 c -0.689893,15.867594 -1.724737,11.728223 0,31.390246 1.724739,19.66202 -7.243901,17.24738 9.31359,43.11846 16.557489,25.87108 20.696864,31.0453 31.045295,41.39373 10.348433,10.34843 27.250871,23.80139 40.013941,29.32056 12.76306,5.51916 24.49128,11.72822 35.52961,8.62369 11.03833,-3.10453 24.14634,-5.51916 28.97561,-6.89895 4.82927,-1.3798 12.07317,-0.34495 12.07317,-0.34495 0,0 -19.31707,23.1115 -28.28571,28.63066 -8.96864,5.51916 -24.83624,12.76307 -31.0453,13.45295 -6.20906,0.6899 -17.59233,3.10454 -21.04181,2.7596 -3.44948,-0.34496 -17.592334,-2.41464 -23.111498,-3.44948 C 77.613239,266.98956 67.264808,263.88502 62.09059,262.16028 56.916375,260.43554 46.222996,253.19163 42.773517,250.777 39.324041,248.36237 27.940767,232.49477 25.87108,230.77003 23.801394,229.04529 13.797909,215.59233 12.418118,212.14286 11.038327,208.69338 1.0348432,176.95819 1.3797909,174.1986 1.7247387,171.43902 -1.0348432,152.81185 0.34494774,148.67247 1.7247387,144.5331 3.0829703,128.79486 5.1526567,124.31054 7.2223432,119.82622 11.383275,105.20906 11.383275,105.20906 Z"
       id="path3"
       sodipodi:nodetypes="csssssscssssssssssscc" />
    <path
       style="fill:#ffffff;fill-opacity:0.65407;stroke:none;stroke-width:0.422007;stroke-opacity:0.0755814"
       id="path4"
       sodipodi:type="arc"
       sodipodi:cx="107.72513"
       sodipodi:cy="100.76129"
       sodipodi:rx="36.219517"
       sodipodi:ry="45.077423"
       sodipodi:start="0"
       sodipodi:end="6.283111"
       sodipodi:arc-type="slice"
       d="M 143.94464,100.76129 A 36.219517,45.077423 0 0 1 107.7258,145.83871 36.219517,45.077423 0 0 1 71.505611,100.76297 36.219517,45.077423 0 0 1 107.72311,55.683868 36.219517,45.077423 0 0 1 143.94464,100.75794 l -36.21951,0.003 z"
       transform="matrix(1,0,0.41322633,0.91062835,0,0)"
       inkscape:transform-center-x="8.2787456"
       inkscape:transform-center-y="1.7247387" />
  </g>
</svg>
