<?xml version="1.0" encoding="UTF-8" standalone="no"?>
<!-- Created with Inkscape (http://www.inkscape.org/) -->

<svg
   width="210mm"
   height="297mm"
   viewBox="0 0 210 297"
   version="1.1"
   id="svg1"
   xmlns:inkscape="http://www.inkscape.org/namespaces/inkscape"
   xmlns:sodipodi="http://sodipodi.sourceforge.net/DTD/sodipodi-0.dtd"
   xmlns="http://www.w3.org/2000/svg"
   xmlns:svg="http://www.w3.org/2000/svg">
  <sodipodi:namedview
     id="namedview1"
     pagecolor="#ffffff"
     bordercolor="#000000"
     borderopacity="0.25"
     inkscape:showpageshadow="2"
     inkscape:pageopacity="0.0"
     inkscape:pagecheckerboard="0"
     inkscape:deskcolor="#d1d1d1"
     inkscape:document-units="mm"
     showgrid="true">
    <inkscape:grid
       id="grid1"
       units="mm"
       originx="0"
       originy="0"
       spacingx="32"
       spacingy="32"
       empcolor="#0099e5"
       empopacity="0.30196078"
       color="#0099e5"
       opacity="0.14901961"
       empspacing="5"
       dotted="false"
       gridanglex="30"
       gridanglez="30"
       visible="true" />
  </sodipodi:namedview>
  <defs
     id="defs1" />
  <g
     inkscape:label="Lag 1"
     inkscape:groupmode="layer"
     id="layer1">
    <rect
       style="fill:#04bc04;fill-opacity:1;stroke-width:2.10347"
       id="rect1"
       width="31.849966"
       height="31.910944"
       x="0.10103258"
       y="0.10102933" />
    <rect
       style="fill:#04bc04;fill-opacity:1;stroke-width:2.10347"
       id="rect1-6"
       width="31.849966"
       height="31.910944"
       x="64.086586"
       y="0.012455258" />
    <rect
       style="fill:#04bc04;fill-opacity:1;stroke-width:2.11956"
       id="rect1-7"
       width="32.215839"
       height="32.032902"
       x="31.830757"
       y="0.012319187" />
    <path
       style="fill:#008000;fill-opacity:1;stroke-width:2.367"
       d="m 37.562893,11.951829 c -0.06098,-1.40251 -0.06098,-1.280553 -0.426853,-2.0732765 -0.365871,-0.7927231 -0.365871,-1.1585956 0.121957,-0.7927231 0.487831,0.3658722 0.487831,0.9146806 0.670767,1.6464256 0.182935,0.731744 0.06098,1.463489 0.06098,1.463489 z"
       id="path1" />
    <path
       style="fill:#008000;fill-opacity:1;stroke-width:2.367"
       d="m 39.453232,12.561616 c 0,-1.524468 -0.121957,-2.195234 0.365871,-2.6220847 0.487831,-0.4268509 0.243917,-0.1219573 0.121957,0.8537027 -0.121957,0.975659 0.06098,2.012297 0.06098,2.012297 z"
       id="path2" />
    <path
       style="fill:#008000;fill-opacity:1;stroke-width:2.367"
       d="m 56.344338,25.550084 c -0.243914,-1.585447 -0.609788,-2.500128 -0.853702,-2.744043 -0.243917,-0.243914 0.853702,0.121958 0.975659,0.609787 0.121957,0.48783 0.304892,1.890341 0.304892,2.134256 0,0.243915 -0.426849,0 -0.426849,0 z"
       id="path3" />
    <path
       style="fill:#008000;fill-opacity:1;stroke-width:2.367"
       d="m 57.502932,25.976935 c 0.121957,-1.829362 0.182936,-1.951319 0.487831,-2.500128 0.304893,-0.548808 0.548809,-0.731744 0.792723,-0.91468 0.243915,-0.182937 -0.06098,0.365872 -0.304895,0.975659 -0.243914,0.609787 -0.548806,1.646425 -0.548806,1.951319 0,0.304894 0.06098,0.731745 0.06098,0.731745 z"
       id="path4" />
    <path
       style="fill:#008000;fill-opacity:1;stroke-width:2.367"
       d="m 79.455271,15.854467 c -0.182936,-0.975659 0.12196,-0.670766 -0.548807,-2.134255 -0.670766,-1.463489 -0.670766,-2.439149 0,-1.158596 0.670767,1.280554 1.280552,2.622085 1.158595,2.987958 -0.121957,0.365872 -0.609788,0.304893 -0.609788,0.304893 z"
       id="path5" />
    <path
       style="fill:#008000;fill-opacity:1;stroke-width:2.367"
       d="m 80.796804,16.098382 c -0.304893,-2.256212 -0.304893,-2.622085 0.06098,-2.805021 0.365874,-0.182936 0.426852,2.683064 0.426852,2.683064 z"
       id="path6" />
    <path
       style="fill:#008000;fill-opacity:1;stroke-width:2.367"
       d="m 69.698676,28.355104 c -0.121957,-2.256212 -0.42685,-2.439148 -0.91468,-3.414808 -0.487829,-0.975659 0.853701,-0.182936 0.853701,0.548809 0,0.731745 0.54881,2.805021 0.54881,2.805021 z"
       id="path7" />
    <path
       style="fill:#008000;fill-opacity:1;stroke-width:2.367"
       d="m 70.857273,28.599019 c 0.487828,-3.719701 0.853702,-4.26851 1.219573,-4.817318 0.365874,-0.548809 0,0.48783 0,0.48783 l -0.853702,4.024595 z"
       id="path8" />
    <path
       style="fill:#008000;fill-opacity:1;stroke-width:2.367"
       d="m 87.992293,22.623105 c -0.304893,-2.256213 -0.365871,-2.37817 -0.548809,-2.987957 -0.182936,-0.609787 0.548809,0.121957 0.548809,0.121957 0,0 0.487831,1.890341 0.548809,2.37817 0.06098,0.48783 -0.548809,0.48783 -0.548809,0.48783 z"
       id="path9" />
    <path
       style="fill:#008000;fill-opacity:1;stroke-width:2.367"
       d="m 89.333826,22.806041 c 0.182935,-2.195234 0.243914,-2.683063 0.731744,-3.109914 0.487829,-0.426851 0,0.731744 0,0.731744 l -0.182938,2.500128 z"
       id="path10" />
    <path
       style="fill:#008000;fill-opacity:1;stroke-width:2.367"
       d="M 70.308464,4.2685104 C 69.759654,1.951319 69.698676,1.951319 69.088891,1.5854467 68.479103,1.2195744 69.942593,1.7074042 69.942593,1.7074042 l 0.670766,2.3171914 z"
       id="path11" />
    <path
       style="fill:#008000;fill-opacity:1;stroke-width:2.367"
       d="M 71.52804,4.3294892 C 71.284123,2.3171914 71.040209,2.0122978 70.857273,1.7683829 70.674338,1.524468 71.345101,1.8903403 71.345101,1.8903403 l 0.426853,2.0732765 z"
       id="path12" />
  </g>
</svg>
