<?xml version="1.0" encoding="UTF-8" standalone="no"?>
<!-- Created with Inkscape (http://www.inkscape.org/) -->

<svg
   width="210mm"
   height="297mm"
   viewBox="0 0 210 297"
   version="1.1"
   id="svg1"
   inkscape:export-filename="e378ab1f-9b15-488f-beaf-7d336e3af8d7.png"
   inkscape:export-xdpi="96"
   inkscape:export-ydpi="96"
   xmlns:inkscape="http://www.inkscape.org/namespaces/inkscape"
   xmlns:sodipodi="http://sodipodi.sourceforge.net/DTD/sodipodi-0.dtd"
   xmlns="http://www.w3.org/2000/svg"
   xmlns:svg="http://www.w3.org/2000/svg">
  <sodipodi:namedview
     id="namedview1"
     pagecolor="#ffffff"
     bordercolor="#000000"
     borderopacity="0.25"
     inkscape:showpageshadow="2"
     inkscape:pageopacity="0.0"
     inkscape:pagecheckerboard="0"
     inkscape:deskcolor="#d1d1d1"
     inkscape:document-units="mm"
     showgrid="true">
    <inkscape:grid
       id="grid1"
       units="px"
       originx="0"
       originy="0"
       spacingx="16.933333"
       spacingy="16.933333"
       empcolor="#0099e5"
       empopacity="0.30196078"
       color="#000000"
       opacity="0.52156863"
       empspacing="5"
       dotted="false"
       gridanglex="30"
       gridanglez="30"
       visible="true" />
  </sodipodi:namedview>
  <defs
     id="defs1" />
  <g
     inkscape:label="Lag 1"
     inkscape:groupmode="layer"
     id="layer1">
    <rect
       style="fill:#04bc04;fill-opacity:1;stroke-width:2.16488"
       id="rect1"
       width="31.849966"
       height="33.801285"
       x="0.10103258"
       y="0.10102933" />
    <rect
       style="fill:#00c100;fill-opacity:1;stroke-width:5.09885"
       id="rect1-6"
       width="88.246162"
       height="67.674538"
       x="64.086586"
       y="0.012455258" />
    <rect
       style="fill:#04bc04;fill-opacity:1;stroke-width:2.17872"
       id="rect1-7"
       width="32.258957"
       height="33.800758"
       x="31.830757"
       y="0.012319187" />
    <path
       style="fill:#008000;fill-opacity:1;stroke-width:2.367"
       d="m 37.562893,11.951829 c -0.06098,-1.40251 -0.06098,-1.280553 -0.426853,-2.0732765 -0.365871,-0.7927231 -0.365871,-1.1585956 0.121957,-0.7927231 0.487831,0.3658722 0.487831,0.9146806 0.670767,1.6464256 0.182935,0.731744 0.06098,1.463489 0.06098,1.463489 z"
       id="path1" />
    <path
       style="fill:#008000;fill-opacity:1;stroke-width:2.367"
       d="m 39.453232,12.561616 c 0,-1.524468 -0.121957,-2.195234 0.365871,-2.6220847 0.487831,-0.4268509 0.243917,-0.1219573 0.121957,0.8537027 -0.121957,0.975659 0.06098,2.012297 0.06098,2.012297 z"
       id="path2" />
    <path
       style="fill:#008000;fill-opacity:1;stroke-width:2.367"
       d="m 56.344338,25.550084 c -0.243914,-1.585447 -0.609788,-2.500128 -0.853702,-2.744043 -0.243917,-0.243914 0.853702,0.121958 0.975659,0.609787 0.121957,0.48783 0.304892,1.890341 0.304892,2.134256 0,0.243915 -0.426849,0 -0.426849,0 z"
       id="path3" />
    <path
       style="fill:#008000;fill-opacity:1;stroke-width:2.367"
       d="m 57.502932,25.976935 c 0.121957,-1.829362 0.182936,-1.951319 0.487831,-2.500128 0.304893,-0.548808 0.548809,-0.731744 0.792723,-0.91468 0.243915,-0.182937 -0.06098,0.365872 -0.304895,0.975659 -0.243914,0.609787 -0.548806,1.646425 -0.548806,1.951319 0,0.304894 0.06098,0.731745 0.06098,0.731745 z"
       id="path4" />
    <path
       style="fill:#008000;fill-opacity:1;stroke-width:2.367"
       d="m 79.455271,15.854467 c -0.182936,-0.975659 0.12196,-0.670766 -0.548807,-2.134255 -0.670766,-1.463489 -0.670766,-2.439149 0,-1.158596 0.670767,1.280554 1.280552,2.622085 1.158595,2.987958 -0.121957,0.365872 -0.609788,0.304893 -0.609788,0.304893 z"
       id="path5" />
    <path
       style="fill:#008000;fill-opacity:1;stroke-width:2.367"
       d="m 80.796804,16.098382 c -0.304893,-2.256212 -0.304893,-2.622085 0.06098,-2.805021 0.365874,-0.182936 0.426852,2.683064 0.426852,2.683064 z"
       id="path6" />
    <path
       style="fill:#008000;fill-opacity:1;stroke-width:2.367"
       d="m 69.698676,28.355104 c -0.121957,-2.256212 -0.42685,-2.439148 -0.91468,-3.414808 -0.487829,-0.975659 0.853701,-0.182936 0.853701,0.548809 0,0.731745 0.54881,2.805021 0.54881,2.805021 z"
       id="path7" />
    <path
       style="fill:#008000;fill-opacity:1;stroke-width:2.367"
       d="m 70.857273,28.599019 c 0.487828,-3.719701 0.853702,-4.26851 1.219573,-4.817318 0.365874,-0.548809 0,0.48783 0,0.48783 l -0.853702,4.024595 z"
       id="path8" />
    <path
       style="fill:#008000;fill-opacity:1;stroke-width:2.367"
       d="m 87.992293,22.623105 c -0.304893,-2.256213 -0.365871,-2.37817 -0.548809,-2.987957 -0.182936,-0.609787 0.548809,0.121957 0.548809,0.121957 0,0 0.487831,1.890341 0.548809,2.37817 0.06098,0.48783 -0.548809,0.48783 -0.548809,0.48783 z"
       id="path9" />
    <path
       style="fill:#008000;fill-opacity:1;stroke-width:2.367"
       d="m 89.333826,22.806041 c 0.182935,-2.195234 0.243914,-2.683063 0.731744,-3.109914 0.487829,-0.426851 0,0.731744 0,0.731744 l -0.182938,2.500128 z"
       id="path10" />
    <path
       style="fill:#008000;fill-opacity:1;stroke-width:2.367"
       d="M 70.308464,4.2685104 C 69.759654,1.951319 69.698676,1.951319 69.088891,1.5854467 68.479103,1.2195744 69.942593,1.7074042 69.942593,1.7074042 l 0.670766,2.3171914 z"
       id="path11" />
    <path
       style="fill:#0000ff;fill-opacity:1;stroke-width:2.367"
       d="M 71.52804,4.3294892 C 71.284123,2.3171914 71.040209,2.0122978 70.857273,1.7683829 70.674338,1.524468 71.345101,1.8903403 71.345101,1.8903403 l 0.426853,2.0732765 z"
       id="path12" />
    <rect
       style="fill:#00c100;fill-opacity:1;stroke-width:2.367"
       id="rect12"
       width="50.944458"
       height="50.922913"
       x="101.58711"
       y="-0.086236939" />
    <path
       style="fill:#0068cb;fill-opacity:1;stroke-width:2.11523"
       d="m 105.10157,15.095394 c -0.80754,0.15444 -0.99981,0.46332 -1.38435,-0.27027 -0.38454,-0.733592 -0.65372,-0.965253 -0.46145,-1.737455 0.19227,-0.772203 0.23072,-0.501931 0.42299,-1.351354 0.19228,-0.849422 0.30764,-0.926643 0.23073,-1.7374548 -0.0769,-0.8108122 0,-0.6177617 -0.26918,-1.4285737 -0.26918,-0.8108121 -0.423,-0.8880324 -0.423,-1.853285 0,-0.9652525 -0.15381,-1.0424727 0,-1.7760646 0.15382,-0.7335919 -0.26917,-0.8880323 0.53837,-1.6602344 0.80753,-0.7722019 1.53816,-1.3899635 2.11497,-1.544404 0.57682,-0.1544403 0.73064,-0.1930504 1.53817,-0.1930504 0.80754,0 1.53817,0.1158303 1.84581,0.2316605 0.30762,0.1158304 1.23053,0.1544404 1.57662,0.1158304 0.34609,-0.03861 1.4228,-0.3088808 1.65353,-0.3088808 0.23072,0 1.26899,-0.1158303 1.4228,-0.1158303 0.15382,0 1.30745,0.1544404 1.30745,0.1544404 l 1.23053,0.6949818 0.73063,1.0424727 c 0,0 0.19227,0.772202 0.19227,1.158303 0,0.3861011 -0.11535,1.0424728 -0.19227,1.3513535 -0.0769,0.3088808 -0.38453,1.1969132 -0.46145,1.5057939 -0.0769,0.3088809 -0.11536,0.7722021 -0.11536,1.2355233 0,0.4633212 0.15382,0.9652525 0.19228,1.3513535 0.0384,0.386102 0.19226,1.312744 0.23072,1.544405 0.0384,0.23166 0.0769,1.081083 0.0384,1.312742 -0.0384,0.231661 -0.3461,1.235524 -0.46146,1.428575 -0.11536,0.19305 -0.46145,0.540541 -0.65372,0.733591 -0.19227,0.193051 -0.80754,0.540542 -0.80754,0.540542 0,0 -0.46145,0.19305 -0.88444,0.23166 -0.42301,0.03861 -0.88446,0.03861 -1.23053,0.03861 -0.3461,0 -0.38456,-0.07723 -1.03828,-0.154441 -0.65372,-0.07723 -0.88444,-0.15444 -1.26898,-0.15444 -0.38455,0 -0.99981,-0.07723 -1.30744,0 -0.30764,0.07723 -0.57682,0.03861 -0.96136,0.193051 -0.38455,0.15444 -0.96136,0.19305 -1.30744,0.19305 -0.3461,0 -0.57682,0 -1.07673,-0.11583 -0.4999,-0.115831 -0.96135,-0.656372 -0.96135,-0.656372 z"
       id="path13" />
    <path
       style="fill:#0068cb;fill-opacity:1;stroke-width:3.12102"
       d="m 104.84036,47.627064 c -0.80754,0.336232 -0.99981,1.008694 -1.38435,-0.588404 -0.38454,-1.597103 -0.65372,-2.101453 -0.46145,-3.782614 0.19227,-1.681163 0.23072,-1.092753 0.42299,-2.942033 0.19228,-1.849276 0.30764,-2.017394 0.23073,-3.78261 -0.0769,-1.765221 0,-1.34493 -0.26918,-3.110149 -0.26918,-1.765218 -0.423,-1.933336 -0.423,-4.034787 0,-2.101452 -0.15381,-2.269568 0,-3.866671 0.15382,-1.597103 -0.26917,-1.933334 0.53837,-3.614495 0.80753,-1.681161 1.53816,-3.026091 2.11497,-3.362322 0.57682,-0.336234 0.73064,-0.420292 1.53817,-0.420292 0.80754,0 1.53817,0.252177 1.84581,0.50435 0.30762,0.252173 1.23053,0.336231 1.57662,0.252173 0.34609,-0.08406 1.4228,-0.672465 1.65353,-0.672465 0.23072,0 1.26899,-0.252173 1.4228,-0.252173 0.15382,0 1.30745,0.336231 1.30745,0.336231 l 1.23053,1.513045 0.73063,2.269569 c 0,0 0.19227,1.68116 0.19227,2.521741 0,0.84058 -0.11535,2.269568 -0.19227,2.942031 -0.0769,0.672465 -0.38453,2.605801 -0.46145,3.278266 -0.0769,0.672463 -0.11536,1.681161 -0.11536,2.689857 0,1.008696 0.15382,2.101451 0.19228,2.942031 0.0384,0.840583 0.19226,2.857974 0.23072,3.362324 0.0384,0.504346 0.0769,2.353626 0.0384,2.85797 -0.0384,0.50435 -0.3461,2.68986 -0.46146,3.110151 -0.11536,0.42029 -0.46145,1.176811 -0.65372,1.597101 -0.19227,0.420292 -0.80754,1.176813 -0.80754,1.176813 0,0 -0.46145,0.42029 -0.88444,0.504348 -0.42301,0.08406 -0.88446,0.08406 -1.23053,0.08406 -0.3461,0 -0.38456,-0.168137 -1.03828,-0.336233 -0.65372,-0.168138 -0.88444,-0.336232 -1.26898,-0.336232 -0.38455,0 -0.99981,-0.168137 -1.30744,0 -0.30764,0.168138 -0.57682,0.08406 -0.96136,0.420291 -0.38455,0.336231 -0.96136,0.420289 -1.30744,0.420289 -0.3461,0 -0.57682,0 -1.07673,-0.252173 -0.4999,-0.252175 -0.96135,-1.428988 -0.96135,-1.428988 z"
       id="path13-1" />
    <path
       style="fill:#0068cb;fill-opacity:1;stroke-width:3.02571"
       d="m 124.7653,15.091373 c -1.65236,0.15444 -2.04577,0.46332 -2.83261,-0.27027 -0.78681,-0.733592 -1.3376,-0.965253 -0.94419,-1.737455 0.39342,-0.772203 0.47209,-0.501931 0.86551,-1.351354 0.39343,-0.849422 0.62947,-0.926643 0.4721,-1.7374553 -0.15734,-0.810812 0,-0.617762 -0.55077,-1.428574 -0.55079,-0.8108118 -0.86554,-0.8880321 -0.86554,-1.8532847 0,-0.9652525 -0.31471,-1.0424727 0,-1.7760646 0.31475,-0.7335919 -0.55075,-0.8880323 1.10159,-1.6602344 1.65234,-0.7722019 3.14733,-1.3899635 4.32758,-1.544404 1.18026,-0.1544403 1.495,-0.1930504 3.14734,-0.1930504 1.65235,0 3.14734,0.1158303 3.77681,0.2316605 0.62945,0.1158304 2.51787,0.1544404 3.22603,0.1158304 0.70814,-0.03861 2.91126,-0.3088808 3.38338,-0.3088808 0.47209,0 2.59655,-0.1158303 2.91127,-0.1158303 0.31474,0 2.67525,0.1544404 2.67525,0.1544404 l 2.51787,0.6949818 1.49497,1.0424727 c 0,0 0.39342,0.772202 0.39342,1.158303 0,0.3861011 -0.23602,1.0424728 -0.39342,1.3513535 -0.15734,0.3088808 -0.7868,1.1969132 -0.94419,1.5057939 -0.15735,0.3088809 -0.23605,0.772202 -0.23605,1.235523 0,0.463321 0.31474,0.965253 0.39344,1.351354 0.0785,0.3861023 0.39339,1.3127443 0.47209,1.5444053 0.0785,0.23166 0.15734,1.081083 0.0785,1.312742 -0.0785,0.231661 -0.70817,1.235524 -0.94422,1.428575 -0.23604,0.19305 -0.9442,0.540541 -1.33761,0.733591 -0.39342,0.193051 -1.65237,0.540542 -1.65237,0.540542 0,0 -0.94419,0.19305 -1.80969,0.23166 -0.86556,0.03861 -1.80975,0.03861 -2.51787,0.03861 -0.70817,0 -0.78687,-0.07723 -2.12449,-0.154441 -1.3376,-0.07723 -1.80969,-0.15444 -2.59652,-0.15444 -0.78686,0 -2.04578,-0.07723 -2.67524,0 -0.62947,0.07723 -1.18026,0.03861 -1.96709,0.193051 -0.78685,0.15444 -1.9671,0.19305 -2.67524,0.19305 -0.70818,0 -1.18026,0 -2.20315,-0.11583 -1.02288,-0.115831 -1.96708,-0.656372 -1.96708,-0.656372 z"
       id="path13-6" />
    <rect
       style="fill:#800080;fill-opacity:1;stroke-width:2.36186"
       id="rect14-3"
       width="12.36422"
       height="0.2587108"
       x="137.81082"
       y="50.901424" />
    <rect
       style="fill:#00c100;fill-opacity:1;stroke-width:7.09168"
       id="rect15"
       width="50.784233"
       height="50.755695"
       x="118.53266"
       y="16.945559" />
    <path
       style="fill:#0068cb;fill-opacity:1;stroke-width:2.367"
       d="m 119.54595,17.872604 c -0.15092,0.215593 -0.19403,0.30183 -0.23715,0.56054 -0.0431,0.258711 -0.0862,0.323389 -0.0862,0.474304 0,0.150914 -0.0862,0.280269 0.0216,0.53898 0.1078,0.258711 0.0647,0.344948 0.2156,0.5821 0.15091,0.237151 0.30183,0.431184 0.38806,0.711454 0.0862,0.28027 0.19404,0.517422 0.12936,0.797692 -0.0647,0.28027 -0.17247,0.56054 -0.28027,0.776132 -0.1078,0.215593 -0.17248,0.150915 -0.23715,0.452744 -0.0647,0.301829 -0.0862,0.323389 -0.0431,0.538981 0.0431,0.215592 0,0.107796 0.10779,0.431185 0.1078,0.323388 0.1078,0.344947 0.1078,0.646777 0,0.301829 0.0862,0.388066 0,0.689895 -0.0862,0.301829 -0.21559,0.129356 -0.28027,0.625218 -0.0647,0.495862 -0.0862,1.013285 0,1.228876 0.0862,0.215593 0.0862,0.150915 0.17247,0.495863 0.0862,0.344948 0.1078,0.280271 0.15092,0.625218 0.0431,0.344948 0.10779,0.452742 0.0431,0.625216 -0.0647,0.172474 -0.0431,-0.02156 -0.19404,0.495864 -0.15091,0.517422 -0.32338,1.013282 -0.25871,1.336672 0.0647,0.32339 0.1078,0.366506 0.2156,0.711454 0.10779,0.344948 0.19403,0.172474 0.23715,0.668338 0.0431,0.49586 0.17247,0.344947 0.0431,0.754573 -0.12936,0.409625 -0.25872,0.495861 -0.28027,0.711454 -0.0216,0.215593 0.0162,0.458134 0.0216,0.471609 0.005,0.01347 0.0377,0.06198 0.0377,0.06198 0,0 0.0135,0.01077 0.0108,0.04312 -0.003,0.03234 -0.0135,0.04312 -0.035,0.08354 -0.0216,0.04042 -0.035,0.07276 -0.035,0.09971 0,0.02695 -0.008,0.04312 0.005,0.102407 0.0135,0.05929 0.0135,0.05929 0.0296,0.123966 0.0162,0.06468 -0.0243,0.102407 0.0404,0.210203 0.0647,0.107797 0.097,0.172474 0.0539,0.269489 -0.0431,0.09702 -0.005,0.08624 -0.0647,0.150915 -0.0593,0.06468 -0.0808,-0.01617 -0.10241,0.140134 -0.0216,0.156306 -0.0485,0.140137 -0.0162,0.231762 0.0323,0.09163 0.11319,0.01617 0.0808,0.226372 -0.0323,0.210204 -0.0485,0.334169 0.0108,0.512033 0.0593,0.177863 0.0485,0.107796 0.0808,0.231761 0.0323,0.123966 0.0808,0.03234 0.0269,0.237152 -0.0539,0.204814 -0.0162,0.102407 -0.0916,0.307218 -0.0755,0.204814 -0.0916,0.237154 -0.097,0.339558 -0.005,0.102407 -0.0162,0.09702 -0.005,0.28566 0.0108,0.188643 -0.0108,0.339559 0.0431,0.501253 0.0539,0.161695 0.0808,0.156306 0.1078,0.323387 0.0269,0.167085 0.0916,0.123968 0.0323,0.296442 -0.0593,0.172474 -0.0539,0.129355 -0.11319,0.285658 -0.0593,0.156305 -0.0431,0.08085 -0.0593,0.242543 -0.0162,0.161692 -0.0323,0.145524 -0.005,0.323387 0.0269,0.177864 0.0431,0.03234 0.0754,0.328779 0.0323,0.29644 0.0647,0.317998 0.0216,0.458134 -0.0431,0.140134 0.0162,0.382675 -0.0162,0.592879 -0.0323,0.210203 -0.0647,0.194032 -0.0269,0.366506 0.0377,0.172474 0.0539,0.140136 0.0701,0.31261 0.0162,0.172474 0.0593,0.140134 -0.0108,0.280271 -0.0701,0.140134 -0.12935,0.312608 -0.19403,0.468913 -0.0647,0.156302 -0.0755,0.129355 -0.0862,0.296439 -0.0108,0.167084 -0.0323,0.204811 0.0431,0.350337 0.0755,0.145524 0.12935,0.134745 0.13475,0.307219 0.005,0.172474 0.0162,0.188642 -0.0431,0.339558 -0.0593,0.150916 -0.17248,0.242541 -0.18865,0.366506 -0.0162,0.123965 -0.0755,0.09702 -0.0162,0.334169 0.0593,0.237151 0.0916,0.28027 0.1024,0.366506 0.0108,0.08624 0,0.156305 -0.0216,0.253323 -0.0216,0.09701 -0.0485,0.107796 -0.0701,0.269488 -0.0216,0.161695 -0.0431,0.129358 -0.0162,0.32878 0.0269,0.199421 -0.0701,1.072573 -0.10241,1.406739 -0.0323,0.334169 -0.0755,0.269491 -0.0323,0.506643 0.0431,0.237151 0,0.118575 0.0755,0.463523 0.0755,0.344948 0.15091,0.301829 0.11857,0.592878 -0.0323,0.29105 -0.097,0.29105 -0.0755,0.528201 0.0216,0.237152 0.097,0.689896 0.15091,0.803082 0.0539,0.113186 0.0539,0.102407 0.0862,0.226372 0.0323,0.123966 0.0593,0.145527 0.0755,0.301829 0.0162,0.156305 0.0162,0.118576 0.0162,0.204814 0,0.08624 0.0323,0.210201 0.0323,0.234455 0,0.02426 -0.0323,0.101061 -0.0323,0.101061 0,0 -0.009,0.03099 -0.009,0.0539 0,0.02291 0.0175,0.319347 0.0229,0.365159 0.005,0.04581 0.008,0.05659 0.0135,0.09432 0.005,0.03773 0.008,0.03773 0.005,0.08085 -0.003,0.04312 -0.003,0.04851 -0.0323,0.105103 -0.0296,0.05659 -0.0814,0.09862 -0.089,0.258685 -0.008,0.160068 -0.0229,0.205804 0.008,0.282025 0.0305,0.07622 0.1353,0.440235 0.16225,0.650436 0.0269,0.210203 0.0323,0.366509 -0.005,0.471609 -0.0377,0.105101 -0.0539,0.07276 -0.0539,0.158999 0,0.08624 0.003,0.04851 0.0108,0.121272 0.008,0.07276 0.0485,0.196728 0.0485,0.296439 0,0.09971 0.0323,0.1051 -0.0243,0.204811 -0.0566,0.09971 -0.0728,0 -0.0862,0.14822 -0.0135,0.148219 -0.0323,0.194034 0.003,0.299135 0.035,0.1051 0.0566,0.04851 0.0701,0.156305 0.0135,0.107797 0.0431,0.07546 0.008,0.167085 -0.035,0.09163 -0.0323,0.0054 -0.0593,0.148219 -0.0269,0.14283 -0.0108,0.158999 0.0323,0.282964 0.0431,0.123965 0.28309,1.010571 0.20687,1.323086 -0.0762,0.312518 -0.1677,0.541187 -0.2363,0.731745 -0.0686,0.190558 -0.1372,0.266782 -0.16006,0.510696 -0.0229,0.243917 -0.0229,0.297273 -0.0229,0.388742 0,0.09147 -0.0534,0.609785 0.0229,0.815588 0.0762,0.205804 0.12958,0.221049 0.14482,0.403985 0.0152,0.182935 0.0991,0.236294 0.0152,0.495453 -0.0838,0.25916 -0.0152,0.853702 -0.0686,1.219573 -0.0534,0.365874 -0.0915,0.114335 -0.061,0.625033 0.0305,0.510696 0.0229,0.724123 0.11434,1.029015 0.0915,0.304893 0.19818,0.411607 0.1372,0.579297 -0.061,0.167693 -0.061,0.06098 -0.16769,0.335384 -0.10671,0.274404 -0.10671,0.03049 -0.10671,0.381116 0,0.350629 -0.0152,0.259159 0.0762,0.5793 0.0915,0.320138 0.19818,0.182936 0.0915,0.533561 -0.10672,0.350629 -0.12577,1.17003 -0.0877,1.307233 0.0381,0.137202 0.0381,0.129579 0.061,0.16388 0.0229,0.0343 -0.08,0.03049 0.0915,0.07241 0.1715,0.04192 0.22486,0.06479 0.32776,0.05716 0.1029,-0.0076 0.1372,0.0076 0.30108,-0.08003 0.16388,-0.08766 0.28965,-0.156258 0.38874,-0.163881 0.0991,-0.0076 0.37358,0.131517 0.50833,0.180026 0.13474,0.04851 0.23176,0.0539 0.39884,0.0539 0.16709,0 0.17787,0.01077 0.44736,-0.07546 0.26949,-0.08624 0.27488,-0.140134 0.44735,-0.150913 0.17247,-0.0108 0.49047,0.21559 0.71685,0.264099 0.22637,0.04851 0.19942,0.09163 0.37189,0.0539 0.17248,-0.03773 0.18865,0.02156 0.35573,-0.140134 0.16708,-0.161695 0.32339,-0.183253 0.44735,-0.188645 0.12397,-0.0054 0.36112,0.0108 0.54977,0.107796 0.18864,0.09702 0.32338,0.242544 0.60365,0.301832 0.28027,0.05929 0.24254,0.08085 0.4258,0.0054 0.18325,-0.07546 0.34495,-0.140136 0.43657,-0.194035 0.0916,-0.0539 0.0916,-0.140133 0.28566,-0.09162 0.19404,0.04851 0.32878,0.194032 0.45814,0.269489 0.12935,0.07546 0.14013,0.102407 0.37189,0.04851 0.23176,-0.0539 0.27488,-0.107797 0.4258,-0.194033 0.15091,-0.08624 0.2102,-0.118575 0.33417,-0.123965 0.12396,-0.0054 0.40962,-0.07546 0.87314,0.03773 0.46353,0.113186 0.24255,-0.06468 1.13726,0.08624 0.8947,0.150913 1.37979,0.204812 1.98344,0.03234 0.60366,-0.172474 1.73552,0.301831 2.12359,0.226372 0.38806,-0.07546 0.56054,-0.344948 0.74379,-0.420404 0.18326,-0.07546 0.64139,-0.126662 0.64139,-0.126662 0,0 0.89628,-0.03034 1.04111,0.06875 0.14482,0.09909 0.60216,0.358251 1.05951,0.388742 0.45734,0.03049 0.80034,0.0686 1.20433,0 0.40398,-0.0686 0.96803,-0.327761 1.65404,-0.434475 0.68601,-0.106712 2.0123,-0.381116 2.97272,0.04573 0.96041,0.426853 1.67691,0.609788 2.25621,0.564055 0.5793,-0.04573 1.09762,-0.243914 1.76838,-0.442095 0.67077,-0.198181 1.37269,0.07608 1.95479,0.162322 0.5821,0.08624 0.62522,0.129355 1.1642,0 0.53898,-0.129355 1.80559,-0.350338 1.80559,-0.350338 0,0 1.05134,-0.238836 1.73735,0.05081 0.68601,0.289647 0.7165,0.45734 1.38726,0.518318 0.67077,0.06098 0.62503,0.228669 1.44825,0.06098 0.82321,-0.167693 1.03663,-0.274405 1.38726,-0.426852 0.35063,-0.152445 0.25916,-0.457341 1.75314,-0.396362 1.49398,0.06098 1.60069,0.09147 2.19524,0.28965 0.59454,0.198181 0.48783,0.213426 1.06712,0.320138 0.5793,0.106714 0.38112,0.274404 1.31105,0.213426 0.92992,-0.06098 1.2653,0 2.02754,-0.228672 0.76223,-0.228668 1.00615,-0.16769 1.21957,-0.426849 0.21343,-0.25916 0.36587,-0.25916 0.36587,-0.579297 0,-0.320141 0.36588,0.03049 -0.061,-0.457341 -0.42686,-0.48783 -0.67077,-0.625033 -0.67077,-0.960416 0,-0.335383 -0.24392,-0.792723 0.18293,-1.234818 0.42686,-0.442095 0.42686,-0.137203 0.50308,-0.640276 0.0762,-0.503076 0.0762,-0.503076 0.0762,-0.564055 0,-0.06098 0.18294,0.04573 -0.0152,-0.228669 -0.19818,-0.274404 0.061,0.213424 -0.30489,-0.396361 -0.36587,-0.609788 -0.50307,-0.365874 -0.35063,-0.838459 0.15245,-0.472586 0.26327,-0.893006 0.44652,-1.119378 0.18326,-0.22637 0.17248,-0.118576 0.18326,-0.371896 0.0108,-0.25332 0.0755,-0.161695 -0.0539,-0.447355 -0.12936,-0.28566 -0.25332,-0.123965 -0.14552,-0.441963 0.10779,-0.318 0.22098,-0.258712 0.24793,-0.614439 0.0269,-0.355727 0.0539,-0.301829 -0.0701,-0.582099 -0.12397,-0.280271 -0.18864,-0.220983 -0.17786,-0.54437 0.0108,-0.323389 0.0162,-0.398846 0.12396,-0.673727 0.1078,-0.274881 0.2102,-0.04851 0.14553,-0.431183 -0.0647,-0.382678 -0.1078,-0.334169 -0.18326,-0.555152 -0.0754,-0.220982 -0.19942,-0.889317 -0.12396,-1.1103 0.0755,-0.220982 0.0755,-0.07546 0.16708,-0.393456 0.0916,-0.317998 0.13475,-0.247931 0.0647,-0.501251 -0.0701,-0.253322 -0.12397,-0.264102 -0.15091,-0.431186 -0.027,-0.167084 0.0108,-0.301829 0.0539,-0.495861 0.0431,-0.194035 0.097,-0.118578 0.0701,-0.339558 -0.0269,-0.220983 -0.0269,-0.113186 -0.0647,-0.312611 -0.0377,-0.199421 -0.0377,-0.490471 -0.0377,-0.490471 0,0 -0.0323,0.02156 0.0539,-0.134744 0.0862,-0.156306 -0.0687,-0.447794 -0.0687,-0.508773 0,-0.06098 -0.004,-0.346816 0.0686,-0.548809 0.0724,-0.201991 0.0991,-0.13339 0.08,-0.312516 -0.019,-0.179125 -0.0724,-0.552619 -0.0838,-0.697444 -0.0114,-0.144825 -0.0152,-0.137202 0.019,-0.259159 0.0343,-0.121957 0.0496,-0.106712 0.0381,-0.228669 -0.0114,-0.12196 -0.0229,-0.476398 -0.0572,-0.678389 -0.0343,-0.201994 -0.0915,-0.141015 -0.0152,-0.285837 0.0762,-0.144825 0.12196,0.01905 0.0762,-0.224859 -0.0457,-0.243917 -0.0648,-0.243917 -0.0648,-0.381119 0,-0.137203 -0.0305,-0.58692 0.0419,-0.800346 0.0724,-0.213424 0.12196,-0.01905 0.0991,-0.285838 -0.0229,-0.266782 -0.16561,-0.442153 -0.14405,-0.620016 0.0216,-0.177864 0.0539,-0.113186 0.0323,-0.25332 -0.0216,-0.140137 0,-0.02156 -0.0323,-0.177864 -0.0323,-0.156305 -0.11318,-0.264101 -0.11318,-0.517422 0,-0.253322 -0.0162,-0.28566 0.0377,-0.388067 0.0539,-0.102407 0.0539,-0.0054 0.0862,-0.167084 0.0323,-0.161695 0.0701,-0.09163 0.0323,-0.264102 -0.0377,-0.172474 -0.0377,-0.177863 -0.0755,-0.328776 -0.0377,-0.150916 -0.2102,0 -0.13474,-0.307219 0.0754,-0.30722 0.19403,-0.167084 0.17247,-0.522814 -0.0216,-0.355727 -0.0754,-0.350337 -0.0916,-0.560538 -0.0162,-0.210203 -0.0323,-0.188642 0.005,-0.301829 0.0377,-0.113186 0.16708,-0.830032 0.16708,-1.164198 0,-0.334169 -0.19403,-0.258712 -0.25871,-0.59827 -0.0647,-0.339559 -0.0485,-0.921658 -0.005,-1.11569 0.0431,-0.194032 0.0647,-0.194032 0.10779,-0.377288 0.0431,-0.183253 0.10241,-0.09701 0.10241,-0.425794 0,-0.328779 0.0539,-0.582099 -0.0647,-0.846198 -0.11858,-0.264102 -0.16708,-0.264102 -0.10779,-0.517422 0.0593,-0.253323 0.24254,-0.555152 0.21559,-0.759963 -0.0269,-0.204814 -0.0162,-0.199424 -0.0808,-0.377288 -0.0647,-0.177863 -0.0647,-0.0054 -0.0755,-0.28027 -0.0108,-0.274881 0.0647,-0.706065 0.0647,-0.706065 0,0 0.16709,-0.614439 0.14014,-0.759962 -0.0269,-0.145526 -0.0216,-0.08085 -0.0808,-0.269492 -0.0593,-0.188642 -0.0862,-0.204811 -0.0647,-0.312608 0.0216,-0.107796 0.0162,-0.07007 0.0377,-0.167084 0.0216,-0.09702 0.0485,-0.06468 0.0431,-0.237151 -0.005,-0.172474 0.1024,-0.371896 0.0701,-0.57132 -0.0323,-0.199422 -0.0862,-0.134745 -0.1024,-0.420405 -0.0162,-0.28566 -0.0485,-0.662948 0.0108,-0.846201 0.0593,-0.183253 0.10241,-0.129355 0.10241,-0.317997 0,-0.188645 0.097,-0.425797 0.0323,-0.662948 -0.0647,-0.237151 -0.0431,-0.231762 -0.14014,-0.431184 -0.097,-0.199424 -0.12935,-0.05929 -0.12935,-0.318 0,-0.258709 0.0323,-0.485081 0.0862,-0.700675 0.0539,-0.21559 0.0916,-0.188642 0.11858,-0.474302 0.0269,-0.28566 0.0485,-0.29105 0.0216,-0.458134 -0.0269,-0.167085 -0.0593,-0.264099 -0.14013,-0.447354 -0.0808,-0.183253 -0.19942,-0.592879 -0.14014,-0.980945 0.0593,-0.388066 0.13475,-0.344947 0.14014,-0.733014 0.005,-0.388066 -0.0162,-0.447354 -0.0539,-0.700675 -0.0377,-0.253321 -0.23176,-0.56593 -0.14552,-0.937826 0.0862,-0.371897 0.28566,-0.371897 0.29643,-0.727624 0.0108,-0.355728 -0.14013,-0.894709 -0.1563,-1.358232 -0.0162,-0.463524 0.0431,-0.355728 0.0916,-0.700675 0.0485,-0.344948 -0.1617,-1.379791 -0.17787,-1.530706 -0.0162,-0.150914 0.0108,-0.118576 0.10241,-0.371897 0.0916,-0.253321 0.22098,-0.226371 0.0755,-0.458133 -0.14553,-0.231762 -0.33417,-0.328779 -0.39885,-0.339558 -0.0647,-0.01078 -0.23176,-0.0539 -0.35034,-0.0054 -0.11857,0.04851 -0.19942,0.161694 -0.43657,0.194033 -0.23715,0.03234 -0.59827,0.04851 -0.80308,-0.02156 -0.20481,-0.07007 -0.94322,-0.307219 -1.21271,-0.226372 -0.26949,0.08085 -0.45274,0.188643 -0.70067,0.220982 -0.24793,0.03234 -0.12397,0.199423 -0.57671,0.05929 -0.45275,-0.140135 -0.39346,-0.237151 -0.81386,-0.253321 -0.42041,-0.01617 -0.71685,0.447354 -1.25044,0.463524 -0.53359,0.01617 -0.46352,0.07007 -0.92705,-0.134746 -0.46352,-0.204812 -0.43657,-0.415015 -0.90009,-0.334167 -0.46353,0.08085 -0.30183,-0.05929 -0.81387,0.102406 -0.51203,0.161694 -0.35033,0.452744 -0.77074,0.468913 -0.4204,0.01617 -0.52281,0.150915 -0.99172,-0.123965 -0.46891,-0.274881 -0.61983,-0.57671 -0.99173,-0.614439 -0.37189,-0.03773 -0.45813,-0.102406 -0.74379,0.01078 -0.28566,0.113185 -0.1617,0.150914 -0.61983,0.231761 -0.45813,0.08085 -0.58749,0.08085 -0.86237,0.04851 -0.27488,-0.03234 -0.82464,-0.08085 -0.99172,-0.03773 -0.16709,0.04312 -0.22638,0.03773 -0.38268,0.123965 -0.1563,0.08624 -0.49047,0.177864 -0.58479,0.177864 -0.0943,0 -0.11589,0.01347 -0.19134,-0.01617 -0.0755,-0.02964 -0.14283,-0.05929 -0.30453,-0.123966 -0.16169,-0.06468 -0.25871,-0.118576 -0.44735,-0.164389 -0.18864,-0.04581 -0.19343,-0.128167 -0.75748,-0.173901 -0.56405,-0.04573 -0.69363,-0.03049 -1.15097,0.01525 -0.45734,0.04573 -0.3049,0.152447 -1.02902,0.152447 -0.72412,0 -1.6388,-0.198181 -2.29433,-0.236293 -0.65552,-0.03811 -0.99852,-0.05336 -1.71502,0.08385 -0.7165,0.137202 -0.48021,0.282026 -1.24244,0.213425 -0.76224,-0.0686 -1.9437,-0.419229 -2.84314,-0.373495 -0.89943,0.04573 -0.91468,0.0076 -1.46349,0.144825 -0.5488,0.137202 -0.69363,0.282026 -1.12048,0.304894 -0.42685,0.02287 -0.49545,0.04573 -0.72412,0 -0.22867,-0.04573 -0.16769,-0.106713 -0.50308,-0.0076 -0.33538,0.09909 -0.32776,0.114335 -0.4802,0.137202 -0.15245,0.02287 -0.60979,0.02477 -0.60979,0.02477 0,0 -0.12767,-0.04954 -0.23248,-0.09147 -0.10481,-0.04192 -0.0923,-0.26664 -0.50194,-0.28281 -0.40963,-0.01617 -0.5282,0.01078 -0.73841,0.03234 -0.2102,0.02156 -0.19403,0.06468 -0.40962,0.04312 -0.21559,-0.02156 -0.0377,0.0054 -0.29644,-0.08624 -0.25871,-0.09163 -0.17247,-0.188644 -0.40963,-0.102407 -0.23715,0.08624 -0.40962,0.194034 -0.48508,0.188644 -0.0755,-0.0054 -0.0808,-0.03773 -0.24793,-0.09702 -0.16709,-0.05929 -0.0862,-0.06468 -0.32878,-0.129355 -0.24254,-0.06468 -0.59288,-0.134746 -0.88393,-0.06468 -0.29105,0.07007 -0.35034,0.129356 -0.61983,0.09702 -0.26949,-0.03234 0.12397,-0.03773 -0.48508,-0.09163 -0.60905,-0.0539 -0.78691,-0.107796 -1.36901,-0.02156 -0.5821,0.08624 -0.57671,0.183253 -0.94322,0.09702 -0.3665,-0.08624 -0.33417,-0.204813 -0.91087,-0.161694 -0.57671,0.04312 -0.69529,0.0539 -1.36363,0.09702 -0.66833,0.04312 -0.68989,-0.04851 -1.14264,-0.07546 -0.45274,-0.02695 -0.23176,-0.150914 -0.81925,-0.02156 -0.58748,0.129355 -0.44735,0.28566 -1.01328,0.242541 -0.56593,-0.04312 -0.54976,-0.06468 -0.79769,-0.03234 -0.24793,0.03234 -0.0162,0.01078 -0.46352,0.08085 -0.44736,0.07007 -0.26411,0.0054 -0.75458,0.07007 -0.49047,0.06468 -0.62522,0.328778 -0.62522,0.328778 z"
       id="path16" />
  </g>
</svg>
